# xmcd CD database file
#
# Track frame offsets:
#	150
#	14907
#	30697
#	46170
#	63042
#	76157
#	94390
#	111670
#	121587
#	136740
#	149972
#	167257
#	180975
#
# Disc length: 2636 seconds
#
# Revision: 5
# Processed by: cddbd v1.5PL3 Copyright (c) Steve Scherf et al.
# Submitted via: CDex 1.50
#
DISCID=aa0a4a0d
DTITLE=吾妻光良 and ザ・スウィンギン・バッパーズ - HEPCATS JUMP AGAIN
DYEAR=1991
DGENRE=Blues
TTITLE0=極楽パパ
TTITLE1=SUGAR RAY
TTITLE2=WALK THAT MESS
TTITLE3=I NEED YOU SO
TTITLE4=GO, GO, GO
TTITLE5=昔つきあってた女
TTITLE6=BONGO BOOGIE
TTITLE7=I CAN DREAM, CAN'T I?
TTITLE8=WHY DID YOU SAY?
TTITLE9=T-TOWN BLUES
TTITLE10=あの娘のうちは千葉よりむこう(俺の部屋から２時間)
TTITLE11=BOOGIE WOOGIE ST. CLAUS
TTITLE12=ゴミの日来るまで
EXTD=YEAR: 1991
EXTT0=
EXTT1=
EXTT2=
EXTT3=
EXTT4=
EXTT5=
EXTT6=
EXTT7=
EXTT8=
EXTT9=
EXTT10=
EXTT11=
EXTT12=
PLAYORDER=
